name C:/MyDriveSym/Projects/mobilecap/Data\Session20210903_0002\mocap\ForceDataProcessed\walkingTS3_forces.mot
datacolumns 19
datarows 17
range 0.00000000 0.00800000
endheader 
time	R_ground_force_vx	R_ground_force_vy	R_ground_force_vz	R_ground_force_px	R_ground_force_py	R_ground_force_pz	R_ground_torque_x	R_ground_torque_y	R_ground_torque_z	L_ground_force_vx	L_ground_force_vy	L_ground_force_vz	L_ground_force_px	L_ground_force_py	L_ground_force_pz	L_ground_torque_x	L_ground_torque_y	L_ground_torque_z	
          0.00000000	        -34.03589300	        173.25459700	          2.93701800	          0.12903500	          0.00600000	         -0.15854700	          0.00000000	          0.49832000	          0.00000000	          0.00000000	          0.00000000	          0.00000000	          0.75627700	          0.00000000	         -0.32764700	          0.00000000	          0.00000000	          0.00000000	
          0.00050000	        -34.35563100	        175.11714700	          2.83423100	          0.12903500	          0.00600000	         -0.15854700	          0.00000000	          0.49857400	          0.00000000	          0.00000000	          0.00000000	          0.00000000	          0.75627700	          0.00000000	         -0.32764700	          0.00000000	          0.00000000	          0.00000000	
          0.00100000	        -34.67832600	        176.99180800	          2.73036400	          0.12903500	          0.00600000	         -0.15854700	          0.00000000	          0.49884600	          0.00000000	          0.00000000	          0.00000000	          0.00000000	          0.75627700	          0.00000000	         -0.32764700	          0.00000000	          0.00000000	          0.00000000	
          0.00150000	        -35.00398000	        178.87850200	          2.62541600	          0.12903500	          0.00600000	         -0.15854700	          0.00000000	          0.49913700	          0.00000000	          0.00000000	          0.00000000	          0.00000000	          0.75627700	          0.00000000	         -0.32764700	          0.00000000	          0.00000000	          0.00000000	
          0.00200000	        -35.33259300	        180.77714400	          2.51938400	          0.12922000	          0.00600000	         -0.15846000	          0.00000000	          0.49944500	          0.00000000	          0.00000000	          0.00000000	          0.00000000	          0.75627700	          0.00000000	         -0.32764700	          0.00000000	          0.00000000	          0.00000000	
          0.00250000	        -35.66416500	        182.68764700	          2.41226600	          0.12940500	          0.00600000	         -0.15837400	          0.00000000	          0.49977100	          0.00000000	          0.00000000	          0.00000000	          0.00000000	          0.75627700	          0.00000000	         -0.32764700	          0.00000000	          0.00000000	          0.00000000	
          0.00300000	        -35.99869200	        184.60992000	          2.30405800	          0.12959000	          0.00600000	         -0.15829000	          0.00000000	          0.50011200	          0.00000000	          0.00000000	          0.00000000	          0.00000000	          0.75627700	          0.00000000	         -0.32764700	          0.00000000	          0.00000000	          0.00000000	
          0.00350000	        -36.33617400	        186.54386900	          2.19475800	          0.12977500	          0.00600000	         -0.15820600	          0.00000000	          0.50047000	          0.00000000	          0.00000000	          0.00000000	          0.00000000	          0.75627700	          0.00000000	         -0.32764700	          0.00000000	          0.00000000	          0.00000000	
          0.00400000	        -36.67660700	        188.48939600	          2.08436400	          0.12995900	          0.00600000	         -0.15812300	          0.00000000	          0.50084300	          0.00000000	          0.00000000	          0.00000000	          0.00000000	          0.75627700	          0.00000000	         -0.32764700	          0.00000000	          0.00000000	          0.00000000	
          0.00450000	        -37.01998500	        190.44640100	          1.97287400	          0.13014300	          0.00600000	         -0.15804200	          0.00000000	          0.50123000	          0.00000000	          0.00000000	          0.00000000	          0.00000000	          0.75627700	          0.00000000	         -0.32764700	          0.00000000	          0.00000000	          0.00000000	
          0.00500000	        -37.36630400	        192.41477800	          1.86028500	          0.13032700	          0.00600000	         -0.15796100	          0.00000000	          0.50163200	          0.00000000	          0.00000000	          0.00000000	          0.00000000	          0.75627700	          0.00000000	         -0.32764700	          0.00000000	          0.00000000	          0.00000000	
          0.00550000	        -37.71555600	        194.39442200	          1.74659500	          0.13051100	          0.00600000	         -0.15788100	          0.00000000	          0.50204700	          0.00000000	          0.00000000	          0.00000000	          0.00000000	          0.75627700	          0.00000000	         -0.32764700	          0.00000000	          0.00000000	          0.00000000	
          0.00600000	        -38.06773200	        196.38522200	          1.63180200	          0.13069400	          0.00600000	         -0.15780300	          0.00000000	          0.50247600	          0.00000000	          0.00000000	          0.00000000	          0.00000000	          0.75627700	          0.00000000	         -0.32764700	          0.00000000	          0.00000000	          0.00000000	
          0.00650000	        -38.42282300	        198.38706600	          1.51590300	          0.13087700	          0.00600000	         -0.15772500	          0.00000000	          0.50291600	          0.00000000	          0.00000000	          0.00000000	          0.00000000	          0.75627700	          0.00000000	         -0.32764700	          0.00000000	          0.00000000	          0.00000000	
          0.00700000	        -38.78081700	        200.39983800	          1.39889800	          0.13106000	          0.00600000	         -0.15764800	          0.00000000	          0.50336800	          0.00000000	          0.00000000	          0.00000000	          0.00000000	          0.75627700	          0.00000000	         -0.32764700	          0.00000000	          0.00000000	          0.00000000	
          0.00750000	        -39.14170300	        202.42342100	          1.28078200	          0.13124300	          0.00600000	         -0.15757200	          0.00000000	          0.50383200	          0.00000000	          0.00000000	          0.00000000	          0.00000000	          0.75627700	          0.00000000	         -0.32764700	          0.00000000	          0.00000000	          0.00000000	
          0.00800000	        -39.50546600	        204.45769200	          1.16155600	          0.13142500	          0.00600000	         -0.15749600	          0.00000000	          0.50430500	          0.00000000	          0.00000000	          0.00000000	          0.00000000	          0.75627700	          0.00000000	         -0.32764700	          0.00000000	          0.00000000	          0.00000000	
